<svg width="55" height="55" viewBox="0 0 55 55" fill="none" xmlns="http://www.w3.org/2000/svg">
<path d="M34.9913 18.9154C34.9779 16.5908 36.0166 14.8389 38.1143 13.5471C36.9411 11.8429 35.1661 10.9056 32.8264 10.7249C31.4195 10.6123 29.9284 11.1707 28.8003 11.5932C28.1521 11.8359 27.6237 12.0337 27.2999 12.0337C26.8993 12.0337 26.2786 11.8062 25.5674 11.5455C24.6134 11.1957 23.4966 10.7863 22.5298 10.7863C19.0471 10.8408 15.346 13.6016 15.346 19.2188C15.346 20.8787 15.6452 22.5931 16.2435 24.3587C16.4462 24.9474 16.7825 25.7525 17.2207 26.6249H37.7151C38.2544 25.9713 38.6536 25.3171 38.8437 24.7336C34.8841 22.8406 34.9826 19.2386 34.9909 18.9332L34.9913 18.9154Z" fill="#2C3250"/>
<path d="M37.8235 28.5211L40.6699 27.5681C41.3184 27.9164 41.7569 28.6016 41.7543 29.3921V37.4901C41.7543 38.6347 40.8332 39.5623 39.693 39.5623C38.5567 39.5623 37.6317 38.6309 37.6317 37.4901V29.3959C37.6317 29.0833 37.7004 28.7869 37.8235 28.5211Z" fill="#2C3250"/>
<path d="M36.4765 28.6249H18.1287V42.1694C18.1287 43.0446 18.8498 43.7591 19.737 43.7591H21.5755V48.2625C21.5755 49.4033 22.5005 50.3347 23.6368 50.3347C24.777 50.3347 25.6981 49.4071 25.6981 48.2625V43.7553H28.9071V48.2588C28.9071 49.3996 29.832 50.331 30.9684 50.331C32.1085 50.331 33.0297 49.4033 33.0297 48.2588V43.7553H34.8682C35.7554 43.7553 36.4765 43.0409 36.4765 42.1656V28.6249Z" fill="#2C3250"/>
<path d="M14.3256 27.3858L16.4344 28.0943C16.7195 28.4489 16.8904 28.9001 16.8904 29.3921V37.4901C16.8904 38.6347 15.9693 39.5623 14.8291 39.5623C13.6928 39.5623 12.7679 38.6309 12.7679 37.4901V29.3959C12.7679 28.4257 13.4296 27.6115 14.3256 27.3858Z" fill="#2C3250"/>
<path d="M32.9587 3.94381L32.9575 3.92847C31.4515 4.01709 29.7102 4.96804 28.7185 6.13714C27.626 7.39145 26.9839 8.94229 27.1217 10.6908C28.7488 10.8169 30.2346 9.96823 31.4582 8.51964C33.1498 6.48318 33.0102 4.62802 32.9587 3.94381Z" fill="#2C3250"/>
</svg>
