<svg width="55" height="55" viewBox="0 0 55 55" fill="none" xmlns="http://www.w3.org/2000/svg">
<path d="M35.6834 8.21573C35.7692 8.2033 35.8561 8.21574 35.9337 8.25054L35.9735 8.27338C36.0605 8.32337 36.1262 8.40012 36.1616 8.48969C36.1969 8.5791 36.2005 8.67733 36.172 8.76884L36.1718 8.76946L31.501 23.8064L31.1569 24.9142H32.3169H40.9349H40.9352C41.0234 24.9142 41.109 24.9397 41.1814 24.9869C41.2537 25.034 41.3094 25.1003 41.3427 25.1767C41.3759 25.2529 41.3858 25.3367 41.3713 25.4179L42.2125 25.5673L41.3713 25.4179C41.3569 25.4992 41.3186 25.5755 41.26 25.6371L41.2595 25.6376L20.512 47.4787L20.5118 47.479C20.4439 47.5505 20.3524 47.5982 20.2516 47.6128C20.1507 47.6273 20.0483 47.6074 19.9613 47.5573C19.8745 47.5072 19.809 47.4305 19.7737 47.341C19.7385 47.2517 19.735 47.1536 19.7634 47.0622L19.7636 47.0614L24.4344 32.0219L24.7784 30.9142H23.6185H15.0005H15.0002C14.9121 30.9142 14.8265 30.8886 14.754 30.8415C14.6817 30.7943 14.626 30.7281 14.5927 30.6517C14.5595 30.5754 14.5497 30.4917 14.5641 30.4105L13.7229 30.2611L14.5641 30.4105C14.5785 30.3292 14.6168 30.2529 14.6754 30.1913L14.676 30.1908L35.4234 8.34964L35.4236 8.34943C35.4914 8.27807 35.5827 8.23033 35.6834 8.21573Z" fill="#2C3250" stroke="#1C1E28" stroke-width="1.70868"/>
</svg>
