<svg width="55" height="55" viewBox="0 0 55 55" fill="none" xmlns="http://www.w3.org/2000/svg">
<path d="M27.8364 6.875C24.8819 6.875 22.0484 8.04867 19.9592 10.1378C17.8701 12.227 16.6964 15.0605 16.6964 18.015C16.6964 24.1579 22.9746 25.8718 23.417 33.1335H32.2542C32.6966 25.8718 38.9764 24.1579 38.9764 18.015C38.9764 15.0605 37.8027 12.227 35.7135 10.1378C33.6244 8.04867 30.7909 6.875 27.8364 6.875ZM27.8364 47.1905C30.8506 47.1905 31.7879 45.5561 32.0807 44.5392H23.5921C23.8849 45.5577 24.8222 47.1905 27.8364 47.1905ZM23.46 42.9446H32.2128V34.7265H23.46V42.9446Z" fill="#2C3250"/>
</svg>
