<svg width="55" height="55" viewBox="0 0 55 55" fill="none" xmlns="http://www.w3.org/2000/svg">
<path d="M12.5654 13.9137C12.9117 13.495 13.3691 13.1825 13.885 13.0119C16.1564 12.2672 18.4454 11.5774 20.7501 10.9431C23.3623 10.2329 26.0165 9.63208 27.5427 9.63208C29.0691 9.63208 31.7239 10.2331 34.3365 10.9434L34.3376 10.9437C36.9721 11.6558 39.6325 12.4996 41.2009 13.0121C41.7166 13.1827 42.1738 13.4952 42.5201 13.9137C42.8666 14.3326 43.088 14.8408 43.1587 15.3799L43.1589 15.3813C44.5532 25.8554 41.3205 33.5826 37.4203 38.6844L37.4183 38.6871C35.7647 40.8692 33.7929 42.7909 31.5688 44.3878L31.5686 44.388C30.8152 44.9293 30.017 45.4055 29.1827 45.8113C28.5304 46.1185 27.948 46.3075 27.5427 46.3075C27.1378 46.3075 26.5583 46.1188 25.9021 45.811C25.068 45.4053 24.27 44.9292 23.5168 44.388L23.5166 44.3878C21.2926 42.7908 19.3208 40.8692 17.6671 38.687L17.6651 38.6844C13.765 33.5826 10.5322 25.8554 11.9266 15.3813L11.9268 15.3799C11.9975 14.8408 12.2188 14.3326 12.5654 13.9137Z" fill="#2C3250" stroke="#1C1E28" stroke-width="1.58544"/>
</svg>
