<svg width="125" height="37" viewBox="0 0 125 37" fill="none" xmlns="http://www.w3.org/2000/svg">
<path d="M99.6134 6.47779C93.0884 6.59859 87.7714 11.9155 87.7714 18.4407C87.7714 18.4407 87.7714 28.4701 87.7714 30.1619C87.7714 30.2827 87.8924 30.4035 88.0124 30.4035H91.6384C91.7584 30.4035 91.8794 30.2827 91.8794 30.1619V18.3198C91.8794 14.0905 95.2634 10.5863 99.4924 10.5863C99.6134 10.5863 99.7344 10.4654 99.7344 10.3446V6.71949C99.8544 6.59859 99.7344 6.47779 99.6134 6.47779Z" fill="#1C1E28"/>
<path d="M14.3022 14.4524C12.1272 14.4524 10.3146 16.265 10.3146 18.44C10.3146 20.6151 12.1272 22.4277 14.3022 22.4277C16.4773 22.4277 18.2899 20.6151 18.2899 18.44C18.2899 16.1441 16.4773 14.4524 14.3022 14.4524Z" fill="#1C1E28"/>
<path d="M101.304 14.6949C100.096 18.5617 100.7 22.5493 102.996 25.6911C105.292 28.712 108.917 30.5246 112.663 30.5246C115.08 30.5246 117.496 29.7995 119.551 28.3495C119.672 28.2287 119.792 28.1078 119.913 28.1078L120.034 27.987C120.155 27.8661 120.397 27.987 120.397 28.2287V30.4037C120.397 30.5246 120.517 30.6454 120.638 30.6454H124.263C124.384 30.6454 124.505 30.5246 124.505 30.4037V18.6825C124.505 14.9366 122.692 11.3115 119.672 9.01559C116.53 6.71969 112.542 6.11546 108.675 7.32379C105.292 8.16969 102.392 11.0698 101.304 14.6949ZM105.534 15.4199C106.259 13.4865 107.83 12.0365 109.642 11.3115C110.609 10.949 111.696 10.7073 112.784 10.7073C114.355 10.7073 115.926 11.1906 117.134 12.0365C119.188 13.4865 120.517 15.7824 120.517 18.32V18.5617C120.517 22.791 117.013 26.2953 112.663 26.2953C110.125 26.2953 107.709 24.9661 106.138 22.9118C104.688 20.7368 104.446 17.9575 105.534 15.4199Z" fill="#1C1E28"/>
<path d="M34.3611 14.6937C33.1527 18.5605 33.7569 22.5481 36.0528 25.6898C38.3487 28.7108 41.9738 30.5233 45.7198 30.5233C48.1365 30.5233 50.5533 29.7983 52.6075 28.3483C52.7283 28.2274 52.8492 28.2274 52.8492 28.1066C52.8492 28.1066 52.97 27.9857 53.0908 27.8649C53.2117 27.7441 53.4534 27.8649 53.4534 28.1066V36.2027C53.4534 36.3235 53.5742 36.4443 53.695 36.4443H57.3201C57.441 36.4443 57.5618 36.3235 57.5618 36.2027V18.5605C57.5618 14.8145 55.7493 11.1894 52.7283 8.89349C49.5866 6.59759 45.5989 5.99339 41.7322 7.20179C38.3487 8.16849 35.4486 11.0686 34.3611 14.6937ZM38.5904 15.4187C39.3154 13.4853 40.8863 12.0353 42.6989 11.3102C43.6655 10.9477 44.7531 10.706 45.8406 10.706C47.4115 10.706 48.9824 11.1894 50.1907 12.0353C52.245 13.4853 53.5742 15.7812 53.5742 18.3188V18.5605C53.5742 22.7898 50.0699 26.294 45.7198 26.294C43.1822 26.294 40.7655 24.9648 39.1946 22.9106C37.8654 20.7355 37.5029 17.9563 38.5904 15.4187Z" fill="#1C1E28"/>
<path d="M61.3079 14.6949C60.0995 18.5617 60.7037 22.5493 62.9996 25.6911C65.2955 28.712 68.9206 30.5246 72.6666 30.5246C75.0833 30.5246 77.5 29.7995 79.5543 28.3495C79.6751 28.2287 79.7959 28.1078 79.9168 28.1078L80.0376 27.987C80.1585 27.8661 80.4001 27.987 80.4001 28.2287V30.4037C80.4001 30.5246 80.5214 30.6454 80.6414 30.6454H84.2674C84.3874 30.6454 84.5084 30.5246 84.5084 30.4037V18.6825C84.5084 14.9366 82.6964 11.3115 79.6751 9.01559C76.5333 6.71969 72.5457 6.11546 68.6789 7.32379C65.2955 8.16969 62.5162 11.0698 61.3079 14.6949ZM65.5372 15.4199C66.2622 13.4865 67.8331 12.0365 69.6456 11.3115C70.6123 10.949 71.6999 10.7073 72.7874 10.7073C74.3583 10.7073 75.9292 11.1906 77.1375 12.0365C79.1918 13.4865 80.5214 15.7824 80.5214 18.32V18.5617C80.5214 22.791 77.0167 26.2953 72.6666 26.2953C70.129 26.2953 67.7122 24.9661 66.1414 22.9118C64.8121 20.7368 64.5705 17.9575 65.5372 15.4199Z" fill="#1C1E28"/>
<path d="M34.1194 30.161L25.1774 6.11442C23.9691 2.73098 20.9482 0.555908 17.323 0.555908C13.6979 0.555908 10.677 2.73098 9.58953 6.11442L0.889234 29.0735L0.526735 29.9193C0.405835 30.161 0.647534 30.4027 0.889234 30.4027H4.51434C4.63514 30.4027 4.87683 30.2818 4.87683 30.161L8.01863 21.8233L8.38113 20.7357C8.38113 20.6149 8.38113 20.494 8.38113 20.3732C8.13943 19.769 8.13943 19.1648 8.13943 18.4398C8.13943 16.1439 9.34784 14.2105 11.1603 13.0021C11.2812 12.8813 11.402 12.8813 11.402 12.6396L11.5229 12.1563L11.6437 11.7938L11.7645 11.5521L13.3354 7.32279C13.3354 7.32279 13.3354 7.32279 13.3354 7.20199C14.0604 5.14772 15.7522 4.4227 17.2022 4.4227C18.6522 4.4227 20.344 5.14772 21.069 7.20199C21.069 7.20199 21.069 7.20199 21.069 7.32279L29.0442 28.4693L29.6484 29.9193C29.6484 30.0402 29.8901 30.161 30.0109 30.161H33.7569C34.1194 30.4027 34.2402 30.2818 34.1194 30.161Z" fill="#1C1E28"/>
</svg>
