<svg width="55" height="55" viewBox="0 0 55 55" fill="none" xmlns="http://www.w3.org/2000/svg"><path d="M35.683 8.216a.453.453 0 01.25.035l.04.022c.087.05.153.127.189.217a.42.42 0 01.01.279h0L31.5 23.806l-.344 1.108h9.778a.45.45 0 01.246.073.434.434 0 01.162.19c.033.076.043.16.028.24l.841.15-.84-.15a.426.426 0 01-.112.22h0L20.512 47.48h0a.447.447 0 01-.55.078.434.434 0 01-.188-.216.42.42 0 01-.01-.279h0l4.67-15.04.344-1.108h-9.777 0a.452.452 0 01-.247-.073.42.42 0 01-.19-.431l-.841-.149.841.15a.426.426 0 01.111-.22h.001L35.423 8.35h0a.447.447 0 01.26-.134z" fill="#2C3250" stroke="#1C1E28" stroke-width="1.709"/></svg>