<svg width="55" height="55" viewBox="0 0 55 55" fill="none" xmlns="http://www.w3.org/2000/svg"><path d="M12.565 13.914a2.89 2.89 0 011.32-.902 148.63 148.63 0 016.865-2.069c2.612-.71 5.267-1.31 6.793-1.31 1.526 0 4.18.6 6.794 1.31h0a145.15 145.15 0 016.864 2.07 2.89 2.89 0 011.958 2.367v.001c1.394 10.474-1.838 18.202-5.739 23.303l-.002.003a27.364 27.364 0 01-5.85 5.7v.001a16.332 16.332 0 01-2.385 1.423c-.653.307-1.235.496-1.64.496-.405 0-.985-.188-1.64-.496a16.324 16.324 0 01-2.386-1.423h0a27.369 27.369 0 01-5.85-5.701l-.002-.003c-3.9-5.101-7.133-12.829-5.738-23.303v-.001a2.89 2.89 0 01.638-1.466z" fill="#2C3250" stroke="#1C1E28" stroke-width="1.585"/></svg>