<svg width="55" height="55" viewBox="0 0 55 55" fill="none" xmlns="http://www.w3.org/2000/svg"><path d="M34.991 18.915c-.013-2.324 1.026-4.076 3.123-5.368-1.173-1.704-2.948-2.641-5.288-2.822-1.407-.113-2.898.446-4.026.868-.648.243-1.176.44-1.5.44-.4 0-1.021-.227-1.733-.487-.954-.35-2.07-.76-3.037-.76-3.483.055-7.184 2.816-7.184 8.433 0 1.66.3 3.374.898 5.14.202.588.538 1.393.977 2.266h20.494c.54-.654.939-1.308 1.129-1.891-3.96-1.893-3.861-5.495-3.853-5.8v-.019zm2.833 9.606l2.846-.953a2.057 2.057 0 011.084 1.824v8.098a2.066 2.066 0 01-2.061 2.072 2.07 2.07 0 01-2.061-2.072v-8.094c0-.313.068-.61.192-.875zm-1.347.104H18.129v13.544a1.6 1.6 0 001.608 1.59h1.839v4.504a2.07 2.07 0 002.06 2.072 2.066 2.066 0 002.062-2.072v-4.508h3.21v4.504a2.07 2.07 0 002.06 2.072c1.14 0 2.062-.928 2.062-2.072v-4.504h1.838c.887 0 1.608-.714 1.608-1.59v-13.54zm-22.151-1.239l2.108.708c.285.355.456.806.456 1.298v8.098a2.066 2.066 0 01-2.06 2.072 2.07 2.07 0 01-2.062-2.072v-8.094c0-.97.662-1.785 1.558-2.01z" fill="#2C3250"/><path d="M32.959 3.944l-.002-.016c-1.506.09-3.247 1.04-4.239 2.21-1.092 1.253-1.734 2.804-1.596 4.553 1.627.126 3.113-.723 4.336-2.171 1.692-2.037 1.552-3.892 1.5-4.576z" fill="#2C3250"/></svg>