<svg width="125" height="37" viewBox="0 0 125 37" fill="none" xmlns="http://www.w3.org/2000/svg"><path d="M99.613 6.478c-6.525.12-11.842 5.438-11.842 11.963v11.72a.26.26 0 00.241.242h3.626a.26.26 0 00.241-.241V18.32c0-4.23 3.384-7.734 7.613-7.734a.26.26 0 00.242-.241V6.719c.12-.12 0-.241-.12-.241zm-85.311 7.974c-2.175 0-3.987 1.813-3.987 3.988s1.812 3.988 3.987 3.988 3.988-1.813 3.988-3.988c0-2.296-1.813-3.988-3.988-3.988zm87.002.243c-1.208 3.867-.604 7.854 1.692 10.996 2.296 3.021 5.921 4.834 9.667 4.834 2.417 0 4.833-.726 6.888-2.175.121-.121.241-.242.362-.242l.121-.121c.121-.12.363 0 .363.242v2.175c0 .12.12.241.241.241h3.625a.26.26 0 00.242-.241V18.683c0-3.746-1.813-7.371-4.833-9.667-3.142-2.296-7.13-2.9-10.997-1.692-3.383.846-6.283 3.746-7.371 7.37zm4.23.725c.725-1.934 2.296-3.383 4.108-4.108.967-.363 2.054-.605 3.142-.605 1.571 0 3.142.484 4.35 1.33 2.054 1.45 3.383 3.745 3.383 6.283v.242c0 4.229-3.504 7.733-7.854 7.733-2.538 0-4.954-1.329-6.525-3.383-1.45-2.175-1.692-4.954-.604-7.492zm-71.173-.726c-1.208 3.867-.604 7.854 1.692 10.996 2.296 3.02 5.92 4.833 9.667 4.833a11.94 11.94 0 006.888-2.175c.12-.12.241-.12.241-.241l.242-.242c.12-.12.362 0 .362.242v8.096c0 .12.121.241.242.241h3.625a.26.26 0 00.242-.241V18.56c0-3.745-1.813-7.37-4.834-9.667-3.141-2.295-7.13-2.9-10.996-1.691-3.383.966-6.283 3.867-7.37 7.492zm4.23.725c.724-1.934 2.295-3.384 4.108-4.109.967-.362 2.054-.604 3.142-.604 1.57 0 3.141.483 4.35 1.33 2.054 1.45 3.383 3.745 3.383 6.283v.242c0 4.229-3.504 7.733-7.854 7.733-2.538 0-4.954-1.33-6.525-3.383-1.33-2.176-1.692-4.955-.605-7.492zm22.717-.724c-1.209 3.867-.604 7.854 1.692 10.996 2.296 3.021 5.92 4.834 9.667 4.834 2.416 0 4.833-.726 6.887-2.175.121-.121.242-.242.363-.242l.12-.121c.121-.12.363 0 .363.242v2.175c0 .12.121.241.241.241h3.626a.26.26 0 00.241-.241V18.683c0-3.746-1.812-7.371-4.833-9.667-3.142-2.296-7.13-2.9-10.996-1.692-3.383.846-6.163 3.746-7.371 7.37zm4.23.725c.724-1.934 2.295-3.383 4.108-4.108.966-.363 2.054-.605 3.141-.605 1.571 0 3.142.484 4.35 1.33 2.055 1.45 3.384 3.745 3.384 6.283v.242c0 4.229-3.504 7.733-7.854 7.733-2.538 0-4.955-1.329-6.526-3.383-1.329-2.175-1.57-4.954-.604-7.492z" fill="#1C1E28"/><path d="M34.12 30.161L25.176 6.114C23.97 2.731 20.948.556 17.323.556S10.677 2.73 9.59 6.114l-8.7 22.96-.363.845c-.121.242.12.484.362.484h3.625c.121 0 .363-.121.363-.242l3.142-8.338.362-1.087v-.363c-.242-.604-.242-1.208-.242-1.933 0-2.296 1.209-4.23 3.021-5.438.121-.12.242-.12.242-.362l.12-.484.122-.362.12-.242 1.571-4.23v-.12c.725-2.054 2.417-2.78 3.867-2.78 1.45 0 3.142.726 3.867 2.78v.12l7.975 21.147.604 1.45c0 .121.242.242.363.242h3.746c.362.242.483.12.362 0z" fill="#1C1E28"/></svg>